<svg xmlns="http://www.w3.org/2000/svg" viewBox="0 0 576 512"><path fill="currentColor" d="M288 227.1C261.9 176.4 190.9 81.9 124.9 35.3C61.6-9.4 37.5-1.7 21.6 5.5C3.3 13.8 0 41.9 0 58.4S9.1 194 15 213.9c19.5 65.7 89.1 87.9 153.2 80.7c3.3-.5 6.6-.9 10-1.4c-3.3.5-6.6 1-10 1.4C101.6 304.7 60.5 355.5 116.1 415.1c89.5 95.8 163.9-38 172-65.6c8 27.6 82.4 161.4 172 65.6c55.6-59.6 14.5-110.4-52.1-120.4c-3.4-.4-6.7-.8-10-1.3c3.3.4 6.7.9 10 1.3c64.1 7.1 133.7-15.1 153.2-80.7C566.9 194 576 75 576 58.4s-3.3-44.7-21.6-52.9c-15.8-7.1-40-14.9-103.2 29.8C385.1 81.9 314.1 176.4 288 227.1z"/></svg>
