<?xml version="1.0" standalone="no"?>
<!DOCTYPE svg PUBLIC "-//W3C//DTD SVG 20010904//EN"
 "http://www.w3.org/TR/2001/REC-SVG-20010904/DTD/svg10.dtd">
<svg version="1.0" xmlns="http://www.w3.org/2000/svg"
 width="1024.000000pt" height="1024.000000pt" viewBox="0 0 1024.000000 1024.000000"
 preserveAspectRatio="xMidYMid meet">

<g transform="translate(0.000000,1024.000000) scale(0.100000,-0.100000)"
fill="#000000" stroke="none">
<path d="M5046 8653 c-4 -21 -6 -57 -5 -81 1 -23 -1 -45 -4 -48 -4 -4 -37 -6
-74 -5 -38 0 -75 -3 -83 -8 -19 -13 -27 -149 -10 -180 10 -20 18 -22 93 -19
l82 3 3 -78 3 -77 -75 -73 c-64 -62 -76 -80 -91 -131 -32 -110 -9 -216 67
-301 l31 -36 -46 -47 -46 -46 -68 12 c-37 6 -174 45 -303 87 -129 42 -288 89
-353 105 -222 55 -412 61 -541 18 -271 -90 -394 -381 -298 -708 38 -129 83
-235 156 -365 164 -291 251 -513 263 -672 l6 -73 1373 0 1374 0 0 51 c0 71 43
241 91 357 23 53 75 158 117 232 96 171 165 316 204 433 26 78 32 111 36 218
4 112 2 136 -19 204 -58 196 -207 321 -413 346 -183 22 -378 -14 -786 -146
-129 -42 -265 -81 -303 -87 l-67 -12 -45 44 c-25 24 -45 47 -45 51 0 3 16 24
35 45 79 86 96 223 42 330 -24 47 -117 144 -138 144 -6 0 -9 38 -7 88 l3 87
84 0 84 0 10 35 c9 36 4 146 -8 158 -4 4 -43 9 -88 12 l-82 5 -3 83 -3 82 -74
0 -73 0 -6 -37z m-1009 -1067 c173 -37 545 -161 669 -224 73 -37 80 -45 83
-98 1 -23 20 -88 42 -145 96 -245 129 -388 129 -552 0 -189 -81 -357 -197
-409 -35 -15 -49 -17 -92 -7 -95 20 -202 134 -205 217 l-1 37 98 3 97 3 -1 27
c0 15 -8 52 -17 82 l-18 55 -99 5 -100 5 -22 84 c-12 47 -28 90 -35 97 -11 11
-75 18 -145 15 -29 -1 -29 -19 -3 -101 32 -99 37 -94 -96 -86 l-116 7 6 -48
c13 -91 25 -122 49 -128 12 -3 65 -9 117 -13 l95 -7 17 -35 c18 -35 25 -141
12 -175 -9 -23 -58 -45 -101 -45 -51 1 -116 31 -180 86 -142 122 -418 573
-493 809 -40 124 -47 257 -17 342 20 58 83 135 131 160 100 53 255 68 393 39z
m2514 -15 c114 -44 189 -143 204 -271 9 -77 -16 -216 -59 -322 -86 -213 -317
-589 -436 -709 -77 -77 -154 -119 -220 -119 -84 0 -117 51 -100 157 16 94 23
99 140 107 55 4 107 9 115 12 19 8 35 66 35 127 l0 47 -111 -6 -112 -7 5 24
c3 13 14 54 24 91 10 37 16 69 14 72 -13 12 -149 10 -168 -3 -7 -4 -23 -48
-35 -97 l-22 -89 -98 -3 -98 -3 -14 -33 c-8 -18 -17 -56 -21 -84 l-6 -51 98
-3 c116 -3 119 -8 81 -91 -40 -88 -120 -154 -206 -171 -45 -8 -106 20 -153 72
-158 175 -161 465 -10 847 37 93 57 159 60 197 l4 57 77 39 c97 51 222 97 436
162 232 71 281 80 410 76 85 -2 123 -8 166 -25z"/>
<path d="M3710 5625 l0 -115 1410 0 1410 0 0 115 0 115 -1410 0 -1410 0 0
-115z"/>
<path d="M1322 4870 c-254 -36 -434 -190 -499 -431 -23 -85 -23 -259 1 -349
42 -157 149 -286 297 -359 133 -65 188 -76 384 -76 182 0 274 14 305 45 20 20
38 92 47 188 7 73 -9 85 -25 19 -14 -53 -62 -121 -100 -141 -126 -65 -331 -57
-481 18 -126 64 -229 186 -278 329 -25 72 -28 97 -28 202 0 128 14 194 61 285
69 132 200 205 392 217 108 6 212 -14 302 -59 57 -29 68 -40 93 -87 15 -31 27
-71 27 -92 0 -37 16 -62 24 -37 2 7 7 75 10 150 5 136 5 138 -17 142 -177 35
-409 51 -515 36z"/>
<path d="M2535 4694 c-11 -2 -45 -9 -75 -15 -73 -15 -177 -70 -233 -124 -142
-135 -196 -325 -148 -515 26 -105 68 -175 148 -250 103 -97 209 -134 378 -133
302 2 523 207 542 503 19 300 -184 516 -502 534 -50 3 -99 3 -110 0z m221 -83
c148 -69 233 -204 249 -396 13 -153 -25 -299 -100 -383 -153 -170 -421 -161
-585 21 -70 77 -119 226 -120 362 0 172 83 331 205 390 109 52 247 54 351 6z"/>
<path d="M5500 4693 c0 -8 -24 -207 -85 -728 -16 -132 -32 -229 -41 -242 -8
-13 -29 -25 -49 -29 -73 -13 -30 -23 110 -23 139 0 182 9 113 24 -51 11 -58
22 -58 86 0 54 31 444 46 569 l6 55 157 -315 c167 -335 209 -411 229 -418 8
-2 78 129 194 367 100 204 185 371 188 371 3 0 20 -156 38 -346 26 -269 30
-349 21 -360 -6 -8 -9 -18 -5 -22 12 -11 296 -16 296 -4 0 5 -23 12 -51 16
-65 9 -93 36 -108 107 -7 30 -32 236 -57 459 -24 223 -47 413 -50 423 -3 10
-11 16 -17 14 -7 -2 -102 -189 -212 -415 -110 -226 -203 -414 -207 -417 -3 -4
-100 179 -214 407 -113 227 -212 416 -218 420 -14 10 -26 10 -26 1z"/>
<path d="M8742 4648 c-11 -29 -55 -141 -97 -248 -42 -107 -99 -253 -126 -325
-126 -331 -149 -368 -230 -381 -21 -4 -36 -10 -34 -15 7 -10 305 -11 305 0 0
4 -15 11 -32 16 -49 15 -48 49 10 206 l49 134 170 3 170 2 61 -152 c64 -158
70 -182 50 -194 -24 -15 28 -23 154 -23 127 -1 174 11 96 23 -32 5 -52 17 -83
49 -42 44 -40 40 -317 722 -63 154 -99 231 -110 233 -11 2 -22 -12 -36 -50z
m84 -343 c36 -94 67 -178 70 -187 5 -17 -6 -18 -140 -18 l-145 0 36 98 c19 53
49 139 66 190 17 51 36 91 41 89 5 -2 37 -79 72 -172z"/>
<path d="M3366 4673 c-4 -4 14 -12 41 -18 35 -7 51 -17 60 -35 18 -34 14 -851
-4 -892 -9 -19 -22 -29 -47 -34 -85 -15 -6 -21 281 -20 l308 1 11 25 c15 32
29 160 18 160 -5 0 -20 -24 -34 -53 -34 -71 -59 -82 -190 -82 -120 0 -179 20
-191 65 -4 14 -7 206 -8 427 l-1 402 26 20 c15 12 37 21 50 21 13 0 24 5 24
10 0 12 -332 14 -344 3z"/>
<path d="M4155 4670 c-3 -5 2 -10 13 -10 32 0 80 -21 88 -38 5 -9 11 -165 14
-347 6 -311 7 -333 28 -386 65 -163 182 -233 387 -232 156 1 261 51 332 157
61 91 66 118 72 471 4 230 10 326 19 342 7 13 26 25 47 29 77 14 27 24 -120
24 -150 0 -199 -11 -115 -25 75 -13 72 3 68 -379 l-3 -341 -31 -66 c-48 -100
-123 -149 -242 -157 -54 -3 -84 0 -119 13 -68 26 -138 95 -165 164 -21 53 -22
72 -25 381 -4 358 -3 367 55 384 17 5 32 13 32 17 0 13 -327 11 -335 -1z"/>
<path d="M6820 4671 c0 -6 14 -11 31 -11 43 0 65 -15 78 -51 15 -43 15 -768 0
-841 -12 -57 -29 -78 -66 -78 -13 0 -23 -4 -23 -9 0 -6 93 -10 224 -10 249 -1
289 6 372 62 27 18 62 53 78 80 25 41 30 61 34 132 4 76 2 87 -24 135 -34 62
-78 102 -150 138 l-53 26 50 53 c60 64 79 105 79 176 0 78 -36 129 -120 170
l-65 32 -222 3 c-157 3 -223 1 -223 -7z m375 -42 c23 -7 57 -28 81 -53 77 -77
82 -215 9 -291 l-32 -35 -97 0 -96 0 0 189 0 190 28 4 c50 8 67 7 107 -4z m80
-457 c54 -27 99 -77 125 -135 65 -147 12 -288 -119 -316 -88 -19 -187 4 -211
48 -6 12 -10 104 -10 227 l0 207 88 -5 c61 -4 99 -11 127 -26z"/>
<path d="M7770 4670 c0 -5 16 -12 35 -16 21 -4 41 -15 48 -28 9 -16 12 -129
12 -446 0 -472 0 -471 -65 -485 -70 -15 -19 -24 145 -24 169 0 225 10 129 25
-81 12 -79 -2 -82 479 -3 467 -3 462 61 480 21 6 35 14 31 18 -11 11 -314 9
-314 -3z"/>
<path d="M210 3169 c0 -10 27 -19 55 -19 12 0 33 -9 46 -19 l24 -19 6 -384 c7
-406 11 -442 60 -541 29 -57 104 -134 161 -163 26 -13 76 -31 110 -39 250 -59
494 61 558 274 30 103 40 229 40 547 0 279 1 292 21 318 11 14 30 26 42 26 20
0 59 18 47 21 -3 1 -81 2 -173 4 -159 2 -216 -6 -145 -20 62 -12 88 -27 95
-54 4 -14 7 -183 7 -376 0 -295 -3 -361 -17 -418 -34 -135 -80 -196 -187 -246
-45 -21 -70 -25 -141 -25 -73 0 -93 4 -141 27 -62 30 -116 84 -148 146 -44 88
-50 144 -50 527 0 350 1 362 21 388 11 14 30 26 42 26 20 0 59 18 47 21 -21 6
-380 4 -380 -2z"/>
<path d="M1638 2541 c-3 -535 0 -512 -74 -525 -75 -15 -26 -24 126 -24 158 0
213 10 126 23 -59 9 -75 22 -86 69 -4 20 -11 189 -15 374 l-7 337 148 -155
c246 -258 566 -580 618 -622 37 -29 51 -36 57 -26 5 7 9 221 9 476 l0 463 25
24 c13 14 33 25 45 25 11 0 20 5 20 10 0 6 -58 10 -155 10 -153 0 -202 -11
-106 -24 58 -8 67 -17 80 -82 12 -62 23 -694 12 -694 -4 0 -149 147 -321 328
-409 426 -474 492 -488 492 -8 0 -12 -131 -14 -479z"/>
<path d="M6747 3009 c-125 -29 -197 -116 -197 -236 0 -114 50 -179 267 -347
138 -106 168 -149 161 -231 -9 -105 -80 -160 -208 -160 -128 0 -200 50 -216
148 -4 20 -10 37 -14 37 -9 0 -20 -85 -20 -153 0 -46 2 -49 38 -65 29 -13 68
-17 182 -17 130 0 150 2 191 22 56 28 104 75 131 127 31 60 30 175 -2 240 -30
63 -107 138 -217 212 -156 105 -195 151 -196 233 -2 108 107 170 247 141 69
-14 112 -48 127 -101 18 -58 29 -47 29 29 0 37 3 76 6 87 5 19 -2 22 -78 33
-95 14 -176 14 -231 1z"/>
<path d="M8025 3008 c-10 -31 -35 -137 -35 -152 0 -27 18 -18 35 18 24 49 53
58 208 64 l137 5 -1 -424 c0 -471 -2 -487 -56 -503 -18 -5 -33 -12 -33 -16 0
-10 339 -10 346 1 2 5 -14 12 -36 15 -23 4 -51 15 -63 24 -22 18 -22 19 -25
461 l-3 442 130 -5 c155 -7 190 -21 204 -81 5 -20 12 -37 17 -37 8 0 20 83 20
145 l0 40 -397 0 c-219 0 -408 4 -421 8 -15 6 -23 4 -27 -5z"/>
<path d="M4858 3003 c-267 -3 -345 -11 -249 -27 73 -11 71 0 71 -461 0 -251
-4 -424 -10 -447 -9 -32 -17 -39 -50 -49 -22 -7 -38 -15 -35 -18 4 -3 134 -7
290 -8 329 -4 302 -13 312 108 4 48 3 69 -6 69 -6 0 -11 -11 -11 -25 0 -14
-13 -39 -29 -57 -28 -32 -30 -32 -134 -36 -121 -5 -169 7 -186 44 -7 16 -11
93 -11 215 l0 191 124 -3 c138 -4 166 -16 166 -71 0 -41 17 -34 24 10 12 86
17 152 11 152 -3 0 -16 -7 -29 -15 -16 -10 -64 -17 -159 -22 l-137 -6 0 196 0
197 108 0 c161 0 202 -17 202 -84 0 -32 18 -34 24 -3 10 48 16 157 9 155 -4
-2 -137 -4 -295 -5z"/>
<path d="M2865 2990 c-3 -5 3 -10 14 -10 35 0 71 -23 79 -49 4 -14 7 -210 6
-436 0 -456 -1 -462 -62 -477 -65 -17 -20 -25 143 -26 158 0 218 10 138 23
-65 11 -73 16 -80 43 -5 15 -8 220 -8 455 l0 429 24 19 c13 10 32 19 42 19 10
0 19 5 19 10 0 6 -58 10 -154 10 -93 0 -157 -4 -161 -10z"/>
<path d="M3370 2991 c0 -5 20 -12 44 -15 27 -4 54 -17 68 -31 15 -14 87 -176
183 -407 234 -565 228 -552 247 -556 11 -2 24 10 38 38 29 56 227 508 307 700
89 215 103 238 159 252 24 7 44 16 44 20 0 4 -65 8 -145 8 -90 0 -145 -4 -145
-10 0 -5 10 -10 23 -10 13 0 32 -6 42 -14 19 -14 19 -15 1 -72 -19 -62 -215
-556 -260 -658 -14 -33 -28 -57 -30 -55 -5 5 -253 639 -278 713 -20 57 -20 60
-3 73 11 7 29 13 42 13 13 0 23 5 23 10 0 6 -67 10 -180 10 -99 0 -180 -4
-180 -9z"/>
<path d="M5460 2991 c0 -4 16 -11 36 -14 20 -3 45 -14 55 -23 18 -16 19 -39
19 -434 0 -230 -3 -432 -7 -450 -5 -26 -14 -36 -45 -48 -21 -8 -38 -18 -38
-22 0 -10 339 -10 345 0 3 5 -14 12 -38 15 -83 13 -87 23 -87 234 l0 171 95 0
94 0 57 -77 c99 -135 213 -271 249 -298 19 -15 55 -33 81 -41 52 -16 210 -19
218 -5 4 5 -17 14 -46 20 -28 7 -65 20 -82 31 -46 28 -150 139 -264 279 l-101
124 55 59 c63 69 90 116 105 189 16 73 -1 144 -48 198 -43 51 -90 76 -168 90
-69 13 -485 15 -485 2z m438 -57 c47 -19 88 -58 115 -109 32 -60 31 -202 -2
-268 -37 -76 -66 -89 -186 -85 -55 2 -106 7 -112 11 -10 6 -13 65 -13 238 l0
229 80 0 c50 0 95 -6 118 -16z"/>
<path d="M7380 2991 c0 -5 13 -12 30 -16 61 -13 60 -9 60 -461 0 -226 -3 -426
-7 -444 -5 -26 -14 -36 -45 -48 -21 -8 -38 -18 -38 -22 0 -9 331 -11 344 -2
12 7 -22 20 -55 21 -14 1 -34 10 -45 22 -18 20 -19 45 -22 448 -2 273 0 436 7
453 7 20 19 29 46 34 76 14 28 24 -120 24 -88 0 -155 -4 -155 -9z"/>
<path d="M9050 2992 c0 -4 16 -14 35 -21 64 -23 96 -63 288 -366 109 -171 107
-163 107 -360 0 -190 -6 -214 -57 -227 -18 -5 -33 -12 -33 -17 0 -9 330 -12
344 -3 13 7 -22 20 -56 21 -16 1 -35 11 -48 28 -20 26 -21 36 -18 219 l3 191
84 139 c175 289 238 367 306 380 72 13 31 24 -95 24 -71 0 -130 -3 -130 -8 0
-4 9 -15 21 -25 26 -22 21 -38 -42 -147 -27 -47 -79 -138 -116 -202 -38 -65
-71 -118 -74 -118 -3 0 -40 55 -81 123 -199 326 -208 344 -168 354 54 14 6 23
-125 23 -80 0 -145 -4 -145 -8z"/>
</g>
</svg>
