<?xml version="1.0" standalone="no"?>
<!DOCTYPE svg PUBLIC "-//W3C//DTD SVG 20010904//EN"
 "http://www.w3.org/TR/2001/REC-SVG-20010904/DTD/svg10.dtd">
<svg version="1.0" xmlns="http://www.w3.org/2000/svg"
 width="900.000000pt" height="900.000000pt" viewBox="0 0 900.000000 900.000000"
 preserveAspectRatio="xMidYMid meet">

<g transform="translate(0.000000,900.000000) scale(0.100000,-0.100000)"
fill="#000000" stroke="none">
<path d="M0 4500 l0 -4500 4500 0 4500 0 0 4500 0 4500 -4500 0 -4500 0 0
-4500z m6689 3176 c8 -10 10 -591 9 -2197 l-3 -2184 -2197 -3 -2198 -2 0 2193
c0 1207 3 2197 7 2200 3 4 988 7 2188 7 1824 0 2184 -2 2194 -14z m-3862
-5161 c117 -154 267 -351 332 -437 66 -86 122 -154 125 -151 3 4 6 201 6 440
l0 434 158 -3 157 -3 0 -730 0 -730 -130 -3 c-71 -1 -135 1 -141 5 -6 5 -156
199 -334 433 -177 234 -333 436 -346 450 l-24 25 0 -452 c0 -402 -2 -452 -16
-457 -20 -8 -278 -8 -298 0 -14 6 -16 79 -16 728 0 398 3 726 7 730 4 3 74 5
157 4 l150 -3 213 -280z m1363 273 c6 -7 70 -112 141 -233 72 -121 145 -244
162 -273 17 -29 35 -51 39 -50 3 2 70 109 148 238 78 129 155 256 172 283 l30
47 177 0 c98 0 180 -3 183 -6 3 -3 -17 -40 -44 -82 -27 -42 -153 -239 -279
-436 l-229 -359 0 -288 c0 -252 -2 -288 -16 -293 -20 -8 -278 -8 -298 0 -14 5
-16 41 -16 294 l0 289 -275 432 c-151 237 -275 436 -275 440 0 15 367 11 380
-3z m1560 -434 c0 -529 4 -560 92 -652 51 -55 122 -83 212 -83 139 -1 230 50
283 159 l28 57 5 480 5 480 163 3 162 2 0 -464 c0 -282 -4 -486 -10 -518 -32
-158 -67 -234 -157 -328 -114 -122 -253 -173 -473 -174 -121 0 -259 22 -284
45 -6 5 -16 9 -23 9 -24 0 -124 70 -173 121 -54 57 -110 162 -136 259 -15 57
-18 125 -22 543 -2 263 -1 485 2 493 4 11 35 14 166 14 l160 0 0 -446z"/>
<path d="M4640 6956 c0 -8 -16 -44 -35 -81 -53 -102 -117 -187 -283 -375 -331
-372 -379 -669 -149 -903 57 -58 220 -167 248 -167 13 0 11 9 -22 95 -30 83
-38 254 -15 345 37 145 130 291 288 450 116 116 117 120 108 206 -8 70 -42
226 -59 274 -48 131 -64 170 -72 170 -5 0 -9 -6 -9 -14z"/>
<path d="M5043 6627 c-49 -93 -120 -180 -198 -243 -238 -193 -373 -384 -399
-567 -14 -98 -6 -178 31 -294 26 -82 43 -106 43 -59 0 45 49 192 84 254 76
134 173 222 353 322 168 92 190 107 209 134 37 58 28 228 -21 378 -35 107 -48
138 -60 138 -5 0 -25 -28 -42 -63z"/>
<path d="M3969 6568 c-16 -62 -70 -165 -142 -270 -100 -148 -136 -251 -137
-388 0 -196 102 -365 267 -442 86 -41 152 -57 258 -64 l90 -6 -56 39 c-100 69
-141 107 -190 177 -67 94 -90 161 -97 273 -7 137 27 259 108 392 l32 52 -23
72 c-26 82 -75 193 -89 202 -5 3 -14 -14 -21 -37z"/>
<path d="M5411 6297 c-17 -25 -73 -83 -125 -129 -73 -64 -122 -98 -221 -148
-218 -112 -333 -221 -412 -390 -36 -77 -78 -219 -67 -229 12 -12 215 -2 281
14 325 81 522 358 568 800 7 66 11 121 10 123 -2 2 -17 -17 -34 -41z"/>
<path d="M4162 5223 l3 -88 305 0 305 0 0 85 0 85 -308 3 -308 2 3 -87z"/>
<path d="M4294 5008 c7 -51 21 -171 31 -268 3 -25 9 -86 15 -135 5 -50 14
-133 20 -185 5 -52 12 -113 15 -135 7 -59 23 -211 30 -280 11 -117 16 -145 31
-160 18 -18 24 -18 46 -2 12 10 22 60 42 222 14 116 30 242 36 280 11 81 23
178 45 360 9 72 18 146 21 165 12 84 21 176 17 183 -2 4 -83 7 -180 7 l-176 0
7 -52z"/>
</g>
</svg>
