<?xml version="1.0" standalone="no"?>
<!DOCTYPE svg PUBLIC "-//W3C//DTD SVG 20010904//EN"
 "http://www.w3.org/TR/2001/REC-SVG-20010904/DTD/svg10.dtd">
<svg version="1.0" xmlns="http://www.w3.org/2000/svg"
 width="557.000000pt" height="557.000000pt" viewBox="0 0 557.000000 557.000000"
 preserveAspectRatio="xMidYMid meet">

<g transform="translate(0.000000,557.000000) scale(0.100000,-0.100000)"
fill="#000000" stroke="none">
<path d="M2660 4473 c-336 -33 -651 -178 -885 -407 -206 -202 -335 -434 -403
-720 -23 -99 -26 -131 -27 -306 0 -169 3 -209 23 -299 76 -340 250 -622 511
-831 67 -54 92 -80 109 -118 66 -145 224 -225 380 -192 50 10 66 9 131 -9 41
-11 76 -22 78 -25 2 -2 -8 -29 -23 -59 -23 -47 -26 -58 -14 -72 7 -9 20 -13
28 -10 25 9 62 -22 62 -54 0 -49 -40 -63 -102 -36 -15 6 -18 1 -18 -32 0 -87
77 -185 193 -245 65 -34 90 -35 154 -3 110 55 193 162 193 248 0 33 -3 38 -17
32 -42 -18 -76 -18 -90 1 -31 42 3 100 52 88 36 -9 48 16 30 66 -8 23 -15 48
-15 55 0 7 26 17 63 24 168 32 348 114 472 216 220 181 344 306 436 442 105
155 191 366 225 553 24 132 24 382 0 510 -95 497 -436 909 -901 1089 -201 78
-447 114 -645 94z m398 -63 c748 -152 1237 -868 1106 -1620 -55 -316 -234
-628 -470 -822 -59 -48 -82 -60 -149 -77 -159 -41 -295 -50 -442 -30 -118 15
-116 14 -109 61 8 47 36 107 62 129 11 8 42 24 69 34 237 85 449 274 562 500
71 142 103 282 103 451 0 286 -110 541 -317 734 -118 111 -250 185 -418 237
-84 25 -102 27 -270 27 -212 0 -275 -14 -439 -93 -122 -59 -178 -98 -274 -194
-131 -128 -222 -287 -269 -467 -33 -122 -37 -330 -9 -455 41 -185 144 -372
284 -511 42 -42 72 -79 65 -81 -23 -8 -103 -74 -113 -94 -11 -20 -11 -20 -41
1 -33 24 -38 16 -9 -15 20 -21 20 -21 0 -78 -11 -31 -20 -75 -20 -97 0 -22 -4
-40 -9 -40 -16 0 -135 106 -206 182 -165 181 -283 411 -337 661 -32 147 -32
417 0 564 132 607 625 1049 1247 1117 86 9 304 -3 403 -24z m-19 -439 c173
-51 324 -144 449 -276 95 -101 164 -215 208 -342 40 -119 54 -199 54 -318 0
-119 -14 -199 -54 -318 -101 -296 -350 -529 -662 -619 -69 -20 -102 -23 -253
-23 l-174 0 -16 25 c-37 58 -87 102 -149 132 -60 30 -75 33 -157 33 -88 0 -91
1 -134 35 -24 19 -69 65 -100 101 -242 287 -303 673 -160 1009 124 293 379
503 700 575 98 22 351 14 448 -14z m-612 -1775 c49 -25 127 -96 105 -96 -6 0
-49 14 -94 31 -133 49 -220 40 -301 -30 -32 -28 -38 -30 -56 -19 -28 17 -26
29 7 60 96 89 229 111 339 54z m-85 -77 c21 -5 72 -30 114 -55 197 -117 383
-193 564 -231 110 -23 353 -23 455 0 38 8 71 14 73 12 10 -10 -126 -102 -213
-146 -236 -116 -532 -143 -804 -75 -244 62 -393 153 -421 256 -10 36 -7 90 7
112 2 4 32 -14 66 -40 115 -89 143 -97 167 -51 18 32 -3 52 -104 98 -53 24
-96 47 -96 51 0 16 51 52 91 65 55 17 56 17 101 4z m-266 -103 c-16 -56 -17
-99 -6 -147 18 -73 87 -142 192 -189 43 -19 77 -39 78 -44 0 -5 -27 -6 -61 -3
-110 10 -198 69 -251 170 -18 33 -23 59 -23 122 0 45 6 94 14 112 13 31 14 32
38 16 18 -12 23 -22 19 -37z m577 18 c34 -6 37 -8 24 -21 -12 -13 -20 -12 -61
7 -49 24 -60 36 -23 27 12 -3 39 -9 60 -13z m317 -47 c-11 -31 -20 -66 -20
-77 0 -17 -4 -19 -27 -14 -45 11 -205 72 -216 83 -21 21 42 43 154 52 62 5
115 11 117 14 13 13 10 -6 -8 -58z m-9 -446 c4 -3 11 -21 17 -39 11 -32 10
-33 -19 -39 -97 -19 -88 -183 11 -183 40 0 40 -24 0 -78 -34 -47 -87 -89 -149
-117 -42 -18 -42 -18 -88 4 -63 30 -111 69 -145 115 -38 53 -37 76 2 76 44 0
80 39 80 85 0 49 -15 74 -56 91 l-34 14 21 43 21 43 167 -4 c91 -2 169 -7 172
-11z"/>
<path d="M2512 4338 c-5 -7 -13 -34 -16 -60 -4 -27 -10 -48 -14 -48 -3 0 -25
18 -47 40 -30 29 -47 39 -59 34 -15 -6 -8 -17 43 -68 46 -47 63 -72 72 -108 6
-27 17 -48 25 -48 22 0 26 18 13 60 -10 32 -9 55 1 113 7 39 15 78 17 85 3 6
-2 12 -10 12 -8 0 -19 -6 -25 -12z"/>
<path d="M3066 4299 c-37 -29 -56 -70 -56 -121 0 -50 19 -82 60 -103 39 -20
69 -19 106 4 38 23 64 76 64 131 0 88 -106 143 -174 89z m111 -35 c22 -22 25
-32 20 -70 -9 -81 -79 -122 -127 -74 -24 24 -26 79 -5 120 28 55 72 64 112 24z"/>
<path d="M2754 4255 c-10 -25 4 -47 28 -43 17 2 24 11 26 31 3 23 0 27 -23 27
-14 0 -28 -7 -31 -15z"/>
<path d="M2173 4219 c-49 -27 -70 -45 -66 -54 4 -12 10 -12 36 1 37 20 39 18
98 -98 28 -57 43 -76 54 -72 22 9 19 19 -30 111 -25 45 -45 87 -45 92 0 5 13
14 29 21 19 7 28 17 24 26 -8 21 -21 17 -100 -27z"/>
<path d="M3340 4104 c-48 -83 -59 -109 -48 -115 20 -13 22 -12 48 36 14 25 29
45 34 45 5 0 23 -9 41 -20 27 -16 34 -18 44 -7 8 11 2 18 -29 36 -45 25 -47
30 -21 62 l18 22 36 -22 c34 -21 57 -21 57 -1 0 8 -100 70 -113 70 -2 0 -33
-48 -67 -106z"/>
<path d="M1974 4086 c-3 -7 28 -57 68 -109 63 -83 75 -95 87 -82 12 12 4 27
-58 109 -71 95 -87 109 -97 82z"/>
<path d="M1812 3945 c-38 -31 -48 -69 -28 -100 22 -34 51 -39 105 -19 60 21
84 14 79 -23 -2 -20 -12 -33 -34 -43 -22 -11 -29 -21 -25 -33 6 -15 9 -15 36
-1 63 32 84 95 45 134 -24 24 -64 26 -113 5 -66 -27 -94 15 -37 57 32 23 40
48 16 48 -8 0 -28 -11 -44 -25z"/>
<path d="M3581 3937 c-14 -17 -6 -43 16 -51 22 -9 45 13 41 38 -4 25 -40 33
-57 13z"/>
<path d="M3752 3783 c-117 -58 -89 -223 38 -223 38 0 77 19 110 55 20 21 25
37 25 77 0 43 -4 53 -33 79 -38 34 -87 38 -140 12z m120 -40 c21 -18 24 -70 5
-93 -40 -51 -112 -65 -147 -30 -30 30 -25 67 14 106 27 27 42 34 72 34 21 0
46 -7 56 -17z"/>
<path d="M1638 3703 c-8 -10 -25 -34 -37 -55 l-21 -36 109 -60 c78 -42 113
-56 120 -49 17 17 14 21 -34 47 -25 14 -45 28 -45 31 0 19 38 33 88 33 46 1
57 4 60 19 3 15 -5 17 -62 17 -59 0 -66 2 -66 19 0 47 -80 71 -112 34z m63
-23 c21 -12 25 -41 9 -71 -10 -18 -13 -18 -40 -4 -40 21 -43 29 -19 59 23 30
23 30 50 16z"/>
<path d="M3969 3488 l-45 -52 -60 13 c-32 8 -65 16 -71 18 -7 3 -13 1 -13 -3
1 -23 21 -36 71 -47 l53 -12 -37 -41 c-36 -40 -46 -67 -28 -78 4 -3 28 19 52
49 24 30 48 55 54 55 11 -1 91 -18 117 -26 12 -4 15 0 11 15 -3 14 -20 23 -54
31 -27 7 -49 15 -49 18 0 3 14 21 32 39 25 26 30 36 22 53 -9 20 -12 17 -55
-32z"/>
<path d="M1505 3395 c-10 -36 -16 -67 -14 -69 2 -2 49 -16 104 -30 55 -15 107
-29 116 -32 13 -3 20 9 33 54 20 72 20 82 1 82 -9 0 -20 -17 -27 -45 -13 -47
-20 -51 -63 -35 -22 8 -26 15 -21 33 3 12 9 32 12 43 4 14 0 23 -10 27 -12 5
-19 -4 -27 -39 -11 -44 -13 -46 -42 -40 -17 3 -32 8 -34 10 -3 2 2 27 11 55
14 48 14 51 -3 51 -15 0 -23 -15 -36 -65z"/>
<path d="M3973 3197 c-103 -8 -113 -11 -113 -29 0 -19 5 -20 54 -16 l55 5 6
-49 c9 -62 30 -58 30 5 l0 47 38 0 37 0 0 -45 c0 -36 3 -45 18 -45 15 0 16 8
12 67 -3 36 -9 67 -15 68 -5 1 -61 -2 -122 -8z"/>
<path d="M1462 3179 c2 -16 24 -29 96 -57 57 -21 88 -38 80 -42 -7 -4 -52 -18
-100 -31 -69 -18 -88 -28 -88 -41 0 -24 6 -23 124 13 56 17 109 33 119 36 11
3 17 12 15 25 -2 15 -32 31 -122 69 -66 27 -122 49 -124 49 -2 0 -2 -9 0 -21z"/>
<path d="M3893 2940 c-47 -28 -62 -85 -37 -137 25 -51 73 -75 138 -70 66 6
106 47 106 110 0 51 -18 79 -64 101 -46 22 -104 20 -143 -4z m146 -46 c38 -32
40 -66 6 -99 -37 -37 -132 -28 -155 15 -45 83 72 149 149 84z"/>
<path d="M1590 2879 c-120 -19 -120 -19 -120 -40 0 -17 5 -20 28 -15 15 3 63
10 107 16 102 14 115 18 115 36 0 16 -41 17 -130 3z"/>
<path d="M1618 2711 c-60 -21 -110 -40 -112 -42 -3 -3 -1 -11 3 -18 7 -11 23
-9 87 13 42 14 79 25 80 23 2 -2 -26 -38 -61 -81 -56 -69 -71 -106 -44 -106
16 0 229 82 229 89 -1 28 -20 27 -98 -4 l-82 -34 19 27 c11 15 40 52 66 82 43
52 53 80 30 86 -5 2 -58 -14 -117 -35z"/>
<path d="M3796 2654 c-3 -9 -6 -17 -6 -18 0 -2 19 -11 43 -21 23 -11 43 -20
45 -21 2 -1 -1 -12 -8 -23 -9 -17 -20 -21 -65 -21 -44 0 -56 -4 -65 -20 -10
-19 -8 -20 55 -20 60 0 66 -2 77 -25 12 -27 41 -39 79 -33 17 2 32 18 51 53
15 28 26 54 25 58 -2 6 -211 107 -222 107 -2 0 -6 -7 -9 -16z m178 -106 c17
-14 -11 -58 -38 -58 -33 0 -47 25 -34 61 9 26 12 27 36 17 15 -7 31 -15 36
-20z"/>
<path d="M1773 2446 c-68 -39 -133 -86 -133 -97 0 -26 33 -16 100 31 80 55 98
59 123 32 36 -40 22 -64 -84 -139 -47 -32 -55 -42 -47 -56 8 -16 16 -13 76 29
124 86 141 127 78 190 -40 40 -57 42 -113 10z"/>
<path d="M3651 2394 c-18 -26 -35 -63 -38 -83 -10 -74 52 -141 131 -141 34 0
46 7 88 50 26 27 48 54 48 59 0 8 -184 162 -192 161 -2 -1 -18 -21 -37 -46z
m179 -122 c0 -3 -12 -19 -27 -34 -33 -34 -79 -37 -117 -7 -49 39 -53 93 -9
141 14 16 20 13 84 -39 38 -30 69 -58 69 -61z"/>
<path d="M2426 3730 c-39 -55 -44 -70 -21 -70 20 0 19 -6 -6 -41 -25 -35 -31
-36 -66 -3 -19 17 -24 27 -15 31 6 2 12 8 12 13 0 8 -91 70 -103 70 -3 0 8
-40 25 -90 l30 -90 56 8 c32 4 91 7 132 7 41 0 100 -3 132 -7 l56 -8 30 90
c17 50 27 90 23 90 -6 0 -81 -50 -101 -67 -2 -2 2 -8 10 -13 12 -7 10 -13 -10
-34 -30 -33 -44 -33 -69 3 -25 35 -26 41 -6 41 8 0 15 3 15 8 0 13 -70 112
-79 112 -5 0 -25 -23 -45 -50z"/>
<path d="M3048 3726 c-42 -61 -44 -66 -23 -66 20 0 19 -6 -6 -47 l-22 -34 -34
33 c-26 25 -30 34 -19 36 9 2 16 7 16 10 0 10 -101 74 -107 68 -3 -2 8 -43 23
-90 l28 -87 61 8 c76 10 183 10 260 0 l60 -7 27 87 c15 48 25 89 23 91 -2 2
-24 -10 -49 -28 -44 -29 -58 -50 -36 -50 19 0 10 -15 -24 -42 l-34 -27 -26 39
c-25 38 -25 40 -6 40 11 0 20 3 20 6 0 12 -76 113 -85 114 -5 0 -27 -25 -47
-54z"/>
<path d="M2331 3512 c-31 -9 -37 -27 -14 -37 28 -11 185 -18 244 -11 68 9 89
20 71 38 -15 15 -259 22 -301 10z"/>
<path d="M2945 3506 l-30 -13 25 -14 c18 -10 61 -14 155 -14 94 0 137 4 155
14 l25 14 -30 13 c-19 8 -75 13 -150 13 -75 0 -131 -5 -150 -13z"/>
<path d="M2300 3056 l0 -305 203 -3 c216 -3 242 -9 253 -55 8 -32 40 -29 56 5
21 43 62 51 271 51 l187 1 0 306 0 306 -203 -4 c-179 -3 -206 -5 -232 -22 -17
-11 -34 -26 -39 -33 -6 -12 -13 -10 -35 11 -38 36 -95 45 -288 46 l-173 0 0
-304z m399 253 c57 -20 61 -41 61 -310 0 -226 -1 -241 -17 -233 -10 5 -105 10
-210 12 l-193 3 0 269 0 270 164 0 c93 0 177 -5 195 -11z m531 -258 l0 -270
-197 -3 c-109 -2 -206 -7 -216 -12 -17 -8 -18 3 -15 236 3 215 5 247 21 272
10 15 28 31 40 36 12 5 100 9 195 9 l172 1 0 -269z"/>
<path d="M2486 3231 c-22 -24 -14 -57 16 -67 16 -5 27 0 40 16 16 20 17 25 5
44 -19 28 -40 31 -61 7z m42 -29 c2 -24 -1 -32 -12 -32 -12 0 -16 10 -16 36 0
45 24 42 28 -4z"/>
<path d="M2388 3200 c-3 -31 0 -40 12 -40 12 0 15 9 12 40 -2 22 -8 40 -12 40
-4 0 -10 -18 -12 -40z"/>
<path d="M2434 3205 c0 -19 4 -35 8 -35 11 0 21 47 13 59 -12 21 -21 11 -21
-24z"/>
<path d="M2580 3230 c0 -8 14 -37 28 -60 4 -5 22 22 22 33 0 5 -4 6 -9 2 -5
-3 -12 4 -16 15 -7 21 -25 28 -25 10z"/>
<path d="M2635 3200 c0 -25 5 -40 13 -40 7 0 12 15 12 40 0 26 -5 40 -13 40
-9 0 -13 -14 -12 -40z"/>
<path d="M2688 3200 c-2 -28 0 -40 9 -40 8 0 13 14 13 40 0 22 -4 40 -9 40 -5
0 -11 -18 -13 -40z"/>
<path d="M2570 3175 c0 -8 4 -15 10 -15 5 0 7 7 4 15 -4 8 -8 15 -10 15 -2 0
-4 -7 -4 -15z"/>
<path d="M2619 3084 c-12 -15 -11 -19 9 -32 28 -18 29 -36 1 -29 -16 4 -19 3
-11 -5 15 -15 42 -2 42 21 0 10 -7 21 -15 25 -8 3 -15 10 -15 17 0 6 7 8 16 5
8 -3 12 -2 9 4 -9 14 -21 12 -36 -6z"/>
<path d="M2438 3050 c-2 -25 1 -40 8 -40 7 0 9 11 7 28 l-4 27 24 -27 c30 -32
37 -27 36 21 -1 30 -2 32 -8 13 l-6 -24 -19 21 c-27 30 -33 26 -38 -19z"/>
<path d="M2530 3085 c0 -12 30 -78 34 -74 11 12 34 79 27 79 -5 0 -12 -10 -15
-22 l-7 -23 -11 23 c-10 20 -28 31 -28 17z"/>
<path d="M2428 2900 c-3 -31 0 -40 12 -40 12 0 15 9 12 40 -2 22 -8 40 -12 40
-4 0 -10 -18 -12 -40z"/>
<path d="M2478 2900 c-3 -39 -3 -40 27 -39 17 1 22 3 13 6 -13 3 -18 15 -18
39 0 47 -17 43 -22 -6z"/>
<path d="M2548 2900 c-3 -39 -3 -40 27 -39 17 1 22 3 13 6 -13 3 -18 15 -18
39 0 47 -17 43 -22 -6z"/>
<path d="M2615 2904 c8 -20 15 -39 15 -43 1 -10 29 43 29 54 1 6 -4 3 -9 -5
-8 -13 -11 -11 -16 8 -4 12 -13 22 -20 22 -12 0 -12 -6 1 -36z"/>
<path d="M3136 3234 c-3 -9 -3 -21 1 -26 3 -7 1 -8 -5 -4 -7 4 -12 3 -12 -3 0
-5 -3 -16 -6 -25 -3 -9 -1 -16 5 -16 6 0 10 5 9 11 -2 6 3 14 10 16 6 3 12 -2
12 -11 0 -9 6 -16 14 -16 13 0 13 6 -1 45 -17 50 -18 52 -27 29z"/>
<path d="M2870 3230 c0 -8 14 -37 28 -60 4 -5 22 22 22 33 0 5 -4 6 -9 2 -5
-3 -12 4 -16 15 -7 21 -25 28 -25 10z"/>
<path d="M2925 3200 c0 -25 5 -40 13 -40 7 0 12 15 12 40 0 26 -5 40 -13 40
-9 0 -13 -14 -12 -40z"/>
<path d="M2978 3200 c-2 -28 0 -40 9 -40 8 0 13 14 13 40 0 22 -4 40 -9 40 -5
0 -11 -18 -13 -40z"/>
<path d="M3020 3237 c0 -2 16 -21 35 -43 25 -28 35 -34 35 -22 0 22 -39 68
-57 68 -7 0 -13 -1 -13 -3z"/>
<path d="M3081 3224 c0 -11 3 -14 6 -6 3 7 2 16 -1 19 -3 4 -6 -2 -5 -13z"/>
<path d="M2860 3175 c0 -8 4 -15 10 -15 5 0 7 7 4 15 -4 8 -8 15 -10 15 -2 0
-4 -7 -4 -15z"/>
<path d="M3025 3170 c-3 -5 -1 -10 4 -10 6 0 11 5 11 10 0 6 -2 10 -4 10 -3 0
-8 -4 -11 -10z"/>
<path d="M3088 3090 c17 -20 16 -70 -3 -70 -11 0 -15 11 -15 38 -1 35 -2 36
-15 18 -19 -25 -19 -31 1 -50 20 -20 38 -20 59 0 21 21 16 43 -15 62 -18 11
-21 12 -12 2z"/>
<path d="M2935 3050 c0 -25 5 -40 13 -40 7 0 12 15 12 40 0 25 -5 40 -12 40
-8 0 -13 -15 -13 -40z"/>
<path d="M3000 3050 c0 -26 5 -40 13 -40 9 0 11 12 9 40 -2 22 -8 40 -13 40
-5 0 -9 -18 -9 -40z"/>
<path d="M2898 2900 c-2 -25 1 -40 8 -40 7 0 10 11 7 28 l-4 27 14 -24 15 -24
16 29 17 29 -4 -32 c-2 -20 1 -33 8 -33 6 0 11 17 10 40 0 44 -16 52 -33 18
l-11 -23 -7 23 c-11 36 -32 26 -36 -18z"/>
<path d="M3010 2900 c0 -38 2 -40 30 -40 17 0 30 4 30 9 0 5 -9 7 -20 4 -14
-4 -20 0 -20 12 0 11 5 15 15 11 9 -3 15 0 15 9 0 9 -6 12 -17 8 -12 -5 -15
-2 -10 10 4 11 1 17 -8 17 -11 0 -15 -11 -15 -40z"/>
<path d="M3095 2907 c-18 -43 -18 -47 -4 -47 5 0 8 3 6 8 -3 4 -1 16 3 27 7
18 8 18 15 -7 4 -16 13 -28 21 -28 10 0 11 7 2 33 -17 51 -26 54 -43 14z"/>
<path d="M2095 3310 c-9 -30 11 -50 49 -48 43 1 56 -8 56 -38 0 -29 -8 -30
-48 -7 -25 14 -32 15 -46 4 -38 -32 -5 -72 54 -64 40 6 40 5 40 -27 0 -27 -3
-31 -17 -25 -42 16 -70 16 -82 1 -25 -30 13 -70 48 -50 26 16 51 5 51 -22 0
-28 -25 -43 -43 -25 -30 30 -83 -13 -56 -45 10 -12 24 -14 56 -9 41 6 43 5 43
-18 0 -27 -27 -40 -53 -26 -34 19 -66 -16 -47 -52 13 -23 43 -25 60 -4 19 23
40 18 40 -10 0 -28 -16 -37 -63 -39 -37 -1 -57 -27 -38 -50 17 -20 45 -21 61
-1 19 23 40 18 40 -9 0 -26 -24 -40 -69 -41 -31 0 -50 -29 -35 -52 17 -27 38
-26 70 4 29 26 29 27 32 5 3 -22 4 -22 241 -22 237 0 238 0 260 -24 41 -43
135 -41 176 4 17 19 31 20 252 20 l233 0 0 335 c0 328 0 335 -20 335 -20 0
-20 -7 -20 -315 l0 -315 -229 0 c-220 0 -230 -1 -236 -20 -7 -23 -60 -40 -99
-33 -15 3 -34 16 -43 29 l-15 24 -229 0 -229 0 0 316 0 316 -34 -6 c-24 -5
-37 -2 -46 9 -18 22 -57 19 -65 -5z"/>
<path d="M2738 2466 c-42 -61 -44 -66 -23 -66 20 0 19 -6 -6 -46 l-21 -34 -34
26 c-28 21 -32 29 -23 41 7 8 8 17 3 22 -21 19 -88 60 -92 57 -2 -3 9 -43 24
-90 l28 -87 61 8 c79 10 233 7 278 -5 l36 -10 27 81 c15 45 29 88 32 95 7 20
-10 13 -61 -24 -41 -30 -46 -37 -34 -47 12 -10 9 -16 -19 -40 l-33 -28 -26 38
c-21 31 -23 39 -10 41 8 2 15 8 15 14 0 13 -69 108 -78 108 -4 0 -24 -25 -44
-54z"/>
<path d="M2643 2249 c-37 -11 -42 -23 -15 -34 32 -14 235 -18 280 -6 46 13 51
31 11 42 -36 10 -239 9 -276 -2z"/>
<path d="M2601 1807 c-18 -23 -2 -49 28 -45 20 2 26 8 26 28 0 29 -34 40 -54
17z"/>
<path d="M2954 1746 c-10 -26 4 -48 28 -44 17 2 23 10 23 28 0 18 -6 26 -23
28 -13 2 -25 -3 -28 -12z"/>
</g>
</svg>
