<?xml version="1.0" encoding="UTF-8" standalone="no"?>
<!-- Generator: Adobe Illustrator 28.0.0, SVG Export Plug-In . SVG Version: 6.00 Build 0)  -->

<svg
        version="1.1"
        id="Layer_1"
        x="0px"
        y="0px"
        viewBox="0 0 1445 1080"
        xml:space="preserve"
        sodipodi:docname="logo_lines.svg"
        inkscape:version="1.1.2 (0a00cf5339, 2022-02-04)"
        width="1445"
        height="1080"
        xmlns:inkscape="http://www.inkscape.org/namespaces/inkscape"
        xmlns:sodipodi="http://sodipodi.sourceforge.net/DTD/sodipodi-0.dtd"
        xmlns="http://www.w3.org/2000/svg"
        xmlns:svg="http://www.w3.org/2000/svg"><defs
   id="defs31"><inkscape:path-effect
   effect="fill_between_many"
   method="originald"
   linkedpaths="#path22,0,1"
   id="path-effect37"
   is_visible="true"
   lpeversion="0"
   join="true"
   close="true"
   autoreverse="true"
   applied="false" />





	<inkscape:path-effect
            effect="fill_between_many"
            method="originald"
            linkedpaths="#path22,0,1"
            id="path-effect2953"
            is_visible="true"
            lpeversion="0"
            join="true"
            close="true"
            autoreverse="true"
            applied="false"/><inkscape:path-effect
            effect="fill_between_many"
            method="originald"
            linkedpaths="#path20,0,1"
            id="path-effect3233"
            is_visible="true"
            lpeversion="0"
            join="true"
            close="true"
            autoreverse="true"
            applied="false"/><inkscape:path-effect
            effect="fill_between_many"
            method="originald"
            linkedpaths="#path18,0,1"
            id="path-effect3437"
            is_visible="true"
            lpeversion="0"
            join="true"
            close="true"
            autoreverse="true"
            applied="false"/><inkscape:path-effect
            effect="fill_between_many"
            method="originald"
            linkedpaths="#path16,0,1"
            id="path-effect3871"
            is_visible="true"
            lpeversion="0"
            join="true"
            close="true"
            autoreverse="true"
            applied="false"/></defs>
    <sodipodi:namedview
            id="namedview29"
            pagecolor="#ffffff"
            bordercolor="#666666"
            borderopacity="1.0"
            inkscape:pageshadow="2"
            inkscape:pageopacity="0.0"
            inkscape:pagecheckerboard="true"
            showgrid="false"
            inkscape:zoom="0.51185607"
            inkscape:cx="633.96728"
            inkscape:cy="719.92894"
            inkscape:window-width="1920"
            inkscape:window-height="1016"
            inkscape:window-x="0"
            inkscape:window-y="27"
            inkscape:window-maximized="1"
            inkscape:current-layer="g26"/>
    <style
            type="text/css"
            id="style2">
	.st0 {
        fill: #FFFFFF;
    }

    @keyframes sway {
        0% {
        }
        50% {
            transform: rotate(2deg) translate(-10px, 10px);
        }
        100% {
        }
    }

    path {
        animation: sway 3s ease-in-out infinite;
        transform-origin: center;
        stroke: #eeeeee;
        stroke-width: 2;
    }

    circle {
        animation: sway 3s ease-in-out infinite;
        transform-origin: center;
    }

    #level-0 {
        animation-delay: 0.5s;
    }

    #level-1 {
        animation-delay: 1.2s;
    }

    #level-2 {
        animation-delay: 2s;
    }

    #level-3 {
        animation-delay: 2.8s;
    }
</style>
    <g
            id="g26"
            inkscape:groupmode="layer"
            inkscape:label="logo-1">




	<path
            d="m 671.03077,778.17103 c 29.86037,0 55.45497,17.67247 74.34623,51.18922 10.96911,19.50066 14.01609,37.1731 16.45368,53.01739 4.87515,28.03219 7.92212,44.48587 54.84559,58.50197 9.75032,3.04695 20.71944,5.48455 31.68854,7.92212 27.42281,6.09397 55.455,12.18786 76.78383,28.64159 59.72076,51.79868 140.77026,78.00258 213.28836,68.86158 59.1113,-7.3127 108.4723,-37.7823 142.5985,-88.36217 9.7503,-14.62555 15.8443,-31.68863 22.5477,-49.9705 7.3126,-20.11002 15.2348,-41.43888 28.0322,-59.11132 35.3448,-47.53284 79.8308,-118.83213 55.4548,-185.8656 -9.1409,-24.98524 -16.4536,-51.79862 -9.7502,-74.95563 29.8604,-97.50329 -4.8752,-210.24143 -82.8778,-268.13398 -6.7033,-4.87516 -14.6254,-9.14095 -23.157,-14.0161 -18.8913,-10.35973 -38.3919,-21.32883 -45.7047,-40.22009 -35.9543,-97.50328 -94.4563,-150.52069 -184.0374,-166.974342 -9.1409,-1.828196 -20.11,-2.437601 -31.0791,-2.437601 C 988.52576,95.648182 965.36874,94.429391 948.30567,82.241492 890.41311,40.193213 828.25477,24.958334 758.1743,35.927439 c -8.53154,1.218776 -18.28186,4.265774 -28.03219,6.703342 -21.32883,6.093955 -43.87648,12.187923 -64.59591,6.093955 -68.25228,-20.110058 -141.37972,-31.688564 -208.41323,21.328847 -6.70334,4.875164 -12.79732,12.187909 -19.50065,18.891251 -14.0161,15.234886 -28.64158,30.469766 -48.14225,32.907376 -87.14352,10.3597 -146.25488,42.04825 -187.08438,98.72203 -6.70334,9.14094 -12.1879,19.50064 -18.28186,31.07918 -11.57851,21.32883 -23.157,43.26707 -42.65765,56.67373 -67.642908,46.31407 -93.846909,102.98786 -90.19054,194.39717 4.265767,92.62808 40.829479,158.4428 112.12874,200.49106 98.72208,57.89258 206.58505,60.93956 265.6964,39.00133 39.61071,-14.62551 81.65899,-1.8282 126.75426,39.61069 22.54761,20.11004 48.75162,11.57851 74.34623,3.65637 6.70334,-2.43759 12.7973,-4.26576 19.50064,-5.48456 9.14094,-1.2188 15.23489,-1.82818 21.32886,-1.82818 z"
            id="level-3"
            style="fill:none;;stroke-opacity:1"
            inkscape:label="level-3"/>
        <path
                d="m 711.25086,650.19799 c 30.46976,0 59.72073,10.35974 76.17444,27.42279 18.28182,18.89125 24.9852,43.26707 31.68855,66.4241 7.92213,28.6416 15.23486,53.0174 41.43889,62.76772 6.70334,2.4376 14.01609,4.26578 21.32882,6.70335 19.50065,5.48457 40.22011,10.96915 55.45499,24.98523 41.43887,37.78249 95.67505,58.50195 143.81725,55.45497 40.8295,-2.43758 76.1744,-20.11004 104.816,-53.01739 9.7504,-10.96913 16.4537,-24.37582 24.3758,-39.00132 7.3128,-13.40669 14.6255,-27.42278 24.3758,-40.22008 43.2671,-55.45498 59.1114,-105.42539 46.9235,-148.08309 -6.0939,-21.32884 -10.9692,-41.43889 -6.0939,-60.93954 18.8912,-74.34623 -5.4846,-154.17705 -60.3302,-199.2723 -4.8752,-3.65635 -10.3597,-7.31274 -16.4537,-10.9691 -13.4067,-8.53155 -28.0322,-17.67248 -33.5167,-31.68858 -28.0322,-70.08047 -71.2993,-109.69116 -135.8952,-124.92604 -6.7034,-1.82819 -14.016,-2.43757 -22.5476,-3.04699 -16.45365,-1.82817 -33.51672,-3.04696 -46.92343,-12.79728 -42.65767,-31.0792 -88.36233,-43.2671 -139.55153,-37.78253 -6.70336,0.6094 -13.40671,1.82817 -20.71946,3.65637 -16.45367,3.65637 -32.90735,7.31274 -48.75164,2.43757 -52.40799,-15.84427 -113.95693,-26.81337 -173.67766,9.14094 -5.48457,3.65638 -11.57851,7.92215 -17.6725,12.79731 -7.31271,6.09395 -15.23486,12.18789 -23.157,16.45368 -6.09397,3.65636 -12.1879,5.48454 -17.67247,6.09394 -73.73684,9.14093 -121.26967,34.12614 -154.17702,80.44021 -6.09397,8.53152 -10.96913,18.89125 -15.84429,29.25096 -7.31276,15.23489 -15.2349,31.68858 -26.8134,42.65768 -48.75163,46.92346 -68.25229,96.89387 -62.15834,157.83341 6.70335,63.37713 36.56375,107.86298 91.40932,137.11396 51.18922,27.4228 84.70596,27.4228 144.4267,1.2188 23.15703,-10.35973 57.28317,-12.1879 83.48717,12.7973 35.95433,33.51674 53.62681,27.42279 80.44018,17.67247 14.01611,-4.87517 29.86038,-10.96911 49.97042,-10.96911 0.60942,-0.60941 1.21882,-0.60941 1.82821,-0.60941 z"
                id="level-2"
                style="fill:none;stroke-opacity:1"
                inkscape:label="level-2"/>
        <path
                d="m 794.73802,572.19538 c 4.26577,0 7.92215,0 12.79732,0.6094 20.71943,2.43758 38.39189,10.35973 49.36101,20.71945 12.79731,12.79728 18.89127,29.25098 24.37582,43.26707 6.09394,15.84428 10.96912,29.86037 23.76642,36.56372 3.65638,1.82818 7.31275,3.65637 10.96911,4.87516 11.57853,5.48454 23.76642,10.96913 33.51674,21.32886 20.71947,22.5476 76.17436,70.08043 142.59856,22.5476 13.4066,-9.75032 24.3758,-23.157 35.9543,-37.1731 3.0469,-3.65637 5.4845,-7.31276 8.5315,-10.96913 29.2509,-35.34493 43.2671,-76.1744 38.3919,-111.51936 l -0.6094,-3.65637 c -1.8282,-14.01607 -4.2658,-28.03217 -1.8282,-42.04828 8.5316,-49.36104 -6.7034,-99.94085 -38.3919,-131.62942 -2.4375,-2.43757 -6.0939,-5.48454 -9.7503,-8.53151 -7.9221,-6.09398 -16.4537,-12.79732 -21.3289,-22.54763 -20.11,-42.65768 -48.7516,-70.08049 -87.7528,-84.09659 -4.2658,-1.21878 -9.141,-2.43757 -14.0161,-3.65635 -10.35976,-2.43759 -21.32887,-4.87516 -30.4698,-10.96914 -28.0322,-19.50064 -57.28317,-29.25096 -89.58113,-29.86037 -4.26576,0 -8.53155,0 -13.40671,0.60941 -10.35972,0.60938 -21.32883,1.82818 -32.29793,-1.82819 -55.455,-17.06309 -98.72208,-18.28186 -139.55156,-3.65637 -5.48454,1.82819 -10.96913,4.26577 -16.45369,7.31274 -6.09394,3.04698 -12.18788,6.09396 -18.89126,8.53155 -4.87514,1.82819 -9.14093,3.04696 -13.40668,3.65635 -59.72076,7.92216 -96.89389,27.4228 -121.26969,62.15834 -6.09395,8.53153 -10.35972,20.11004 -14.0161,30.46978 -3.04697,8.53153 -6.70334,17.06308 -10.35972,24.3758 -20.11005,37.78251 -23.157,78.00262 -7.92212,120.66031 13.40668,37.78249 35.34493,60.93952 71.29924,75.565 35.34496,14.0161 60.93956,10.96914 96.28447,-0.60938 21.32886,-6.70335 42.6577,-4.26578 58.50197,7.92214 21.32884,16.45368 34.12615,14.62549 51.7986,12.18791 7.31275,0 14.62548,-0.6094 23.15703,-0.6094 z"
                id="level-1"
                style="fill:none;stroke-opacity:1"
                inkscape:label="level-1"/>
        <path
                d="m 830.69237,477.12969 c 23.7664,0 49.361,3.65639 77.39319,20.11007 34.73554,20.71945 46.92345,49.36101 56.67376,71.90865 10.96915,25.5946 15.84432,35.34493 38.39188,34.73554 45.7047,-1.8282 68.2522,-62.15834 67.0335,-120.66028 -1.8282,-90.19053 -82.26835,-148.0831 -150.52063,-170.63072 -31.68855,-10.35973 -80.4402,-20.71945 -135.89516,-14.01611 -65.20532,7.92215 -85.92477,29.251 -96.28446,45.09527 -18.89128,29.25098 -0.60941,90.79993 36.56372,118.83209 24.98521,19.50067 49.97041,17.67247 78.612,15.8443 9.14094,-0.60939 18.28187,-1.21881 28.0322,-1.21881 z"
                id="level-0"
                style="fill:none;stroke-opacity:1"
                inkscape:label="level-0"/>

    </g>
</svg>